<svg width="15" height="16" viewBox="0 0 15 16" fill="none" xmlns="http://www.w3.org/2000/svg">
  <path
    d="M13.4853 4.86667C13.2574 3.59333 12.1448 2.66667 10.8445 2.66667H10.7373C10.811 2.46 10.8512 2.23333 10.8512 2C10.8512 0.9 9.94638 0 8.84048 0H6.15952C5.05362 0 4.14879 0.9 4.14879 2C4.14879 2.23333 4.18901 2.46 4.26273 2.66667H4.1555C2.85523 2.66667 1.74263 3.59333 1.51475 4.86667L0 13.3333H4.81903C4.81903 14.8067 6.01877 16 7.5 16C8.98123 16 10.181 14.8067 10.181 13.3333H15L13.4786 4.86667H13.4853ZM5.48928 2C5.48928 1.63333 5.79088 1.33333 6.15952 1.33333H8.84048C9.20911 1.33333 9.51072 1.63333 9.51072 2C9.51072 2.36667 9.20911 2.66667 8.84048 2.66667H6.15952C5.79088 2.66667 5.48928 2.36667 5.48928 2ZM7.5 14.6667C6.76273 14.6667 6.15952 14.0667 6.15952 13.3333H8.84048C8.84048 14.0667 8.23726 14.6667 7.5 14.6667ZM1.59517 12L2.83512 5.1C2.94906 4.46 3.50536 4 4.1555 4H10.8445C11.4946 4 12.0509 4.46 12.1649 5.1L13.4048 12H1.59517Z"
    fill="currentColor" />
</svg>