<svg width="41" height="42" viewBox="0 0 41 42" fill="none" xmlns="http://www.w3.org/2000/svg">
<path fill-rule="evenodd" clip-rule="evenodd" d="M10.25 8C8.86929 8 7.75 9.11929 7.75 10.5V31.5C7.75 32.8807 8.86929 34 10.25 34H31.25C32.6307 34 33.75 32.8807 33.75 31.5V10.5C33.75 9.11929 32.6307 8 31.25 8H10.25ZM5.75 10.5C5.75 8.01472 7.76472 6 10.25 6H31.25C33.7353 6 35.75 8.01472 35.75 10.5V31.5C35.75 33.9853 33.7353 36 31.25 36H10.25C7.76472 36 5.75 33.9853 5.75 31.5V10.5Z" fill="white"/>
<path fill-rule="evenodd" clip-rule="evenodd" d="M14.5 15.75C14.5 15.1977 14.9477 14.75 15.5 14.75H26C26.5523 14.75 27 15.1977 27 15.75V26.25C27 26.8023 26.5523 27.25 26 27.25H15.5C14.9477 27.25 14.5 26.8023 14.5 26.25V15.75ZM16.5 16.75V25.25H25V16.75H16.5Z" fill="white"/>
<path fill-rule="evenodd" clip-rule="evenodd" d="M15.5 0.75C16.0523 0.75 16.5 1.19772 16.5 1.75V7C16.5 7.55228 16.0523 8 15.5 8C14.9477 8 14.5 7.55228 14.5 7V1.75C14.5 1.19772 14.9477 0.75 15.5 0.75Z" fill="white"/>
<path fill-rule="evenodd" clip-rule="evenodd" d="M26 0.75C26.5523 0.75 27 1.19772 27 1.75V7C27 7.55228 26.5523 8 26 8C25.4477 8 25 7.55228 25 7V1.75C25 1.19772 25.4477 0.75 26 0.75Z" fill="white"/>
<path fill-rule="evenodd" clip-rule="evenodd" d="M15.5 34C16.0523 34 16.5 34.4477 16.5 35V40.25C16.5 40.8023 16.0523 41.25 15.5 41.25C14.9477 41.25 14.5 40.8023 14.5 40.25V35C14.5 34.4477 14.9477 34 15.5 34Z" fill="white"/>
<path fill-rule="evenodd" clip-rule="evenodd" d="M26 34C26.5523 34 27 34.4477 27 35V40.25C27 40.8023 26.5523 41.25 26 41.25C25.4477 41.25 25 40.8023 25 40.25V35C25 34.4477 25.4477 34 26 34Z" fill="white"/>
<path fill-rule="evenodd" clip-rule="evenodd" d="M33.75 15.75C33.75 15.1977 34.1977 14.75 34.75 14.75H40C40.5523 14.75 41 15.1977 41 15.75C41 16.3023 40.5523 16.75 40 16.75H34.75C34.1977 16.75 33.75 16.3023 33.75 15.75Z" fill="white"/>
<path fill-rule="evenodd" clip-rule="evenodd" d="M33.75 24.5C33.75 23.9477 34.1977 23.5 34.75 23.5H40C40.5523 23.5 41 23.9477 41 24.5C41 25.0523 40.5523 25.5 40 25.5H34.75C34.1977 25.5 33.75 25.0523 33.75 24.5Z" fill="white"/>
<path fill-rule="evenodd" clip-rule="evenodd" d="M0.5 15.75C0.5 15.1977 0.947715 14.75 1.5 14.75H6.75C7.30228 14.75 7.75 15.1977 7.75 15.75C7.75 16.3023 7.30228 16.75 6.75 16.75H1.5C0.947715 16.75 0.5 16.3023 0.5 15.75Z" fill="white"/>
<path fill-rule="evenodd" clip-rule="evenodd" d="M0.5 24.5C0.5 23.9477 0.947715 23.5 1.5 23.5H6.75C7.30228 23.5 7.75 23.9477 7.75 24.5C7.75 25.0523 7.30228 25.5 6.75 25.5H1.5C0.947715 25.5 0.5 25.0523 0.5 24.5Z" fill="white"/>
</svg>
