<svg width="36" height="38" viewBox="0 0 36 38" fill="none" xmlns="http://www.w3.org/2000/svg">
<path d="M8.18182 14.8696H4.90909V26.4348H8.18182V14.8696Z" fill="white"/>
<path d="M18 14.8696H14.7273V26.4348H18V14.8696Z" fill="white"/>
<path d="M32.7273 8.26087L16.3636 0L0 8.26087V11.5652H32.7273V8.26087ZM7.31455 8.26087L16.3636 3.70087L25.4127 8.26087H7.31455Z" fill="white"/>
<path d="M0 29.7391V33.0435H20.2909C19.9473 31.9861 19.7673 30.8791 19.7018 29.7391H0Z" fill="white"/>
<path d="M27.8182 18.6035V14.8696H24.5455V20.2557L27.8182 18.6035Z" fill="white"/>
<path d="M29.4545 21.4783L22.9091 24.7826V28.9956C22.9091 33.1591 25.7073 37.0583 29.4545 38C33.2018 37.0583 36 33.1591 36 28.9956V24.7826L29.4545 21.4783ZM28.2764 33.0435L24.9545 29.6896L26.6891 27.9383L28.2764 29.5409L32.22 25.6087L33.9545 27.36L28.2764 33.0435Z" fill="white"/>
</svg>
